# xmcd CD database file
#
# Track frame offsets:
#	187
#	17802
#	33660
#	49917
#	74207
#	90260
#	104032
#	122472
#	145747
#	162577
#
# Disc length: 2406 seconds
#
# Revision: 0
# Processed by: cddbd v1.5.1PL2 Copyright (c) Steve Scherf et al.
# Submitted via: CDex 1.51
#
DISCID=8f09640a
DTITLE=Legendary Blues Band - Prime Time Blues
DYEAR=1992
DGENRE=Blues
TTITLE0=You Never Miss Me
TTITLE1=Stop Your Complaining
TTITLE2=Lonesome For My Baby
TTITLE3=Blues Today
TTITLE4=Monday Morning
TTITLE5=Sweet Thing (Song For Mary)
TTITLE6=I Don't Know
TTITLE7=Hoochie Coochie Man
TTITLE8=Big Town Playboy
TTITLE9=One Day Till Christmas
EXTD=YEAR: 1992
EXTT0=
EXTT1=
EXTT2=
EXTT3=
EXTT4=
EXTT5=
EXTT6=
EXTT7=
EXTT8=
EXTT9=
PLAYORDER=
